<?xml version="1.0" encoding="UTF-8"?>
<svg width="1920px" height="276px" viewBox="0 0 1920 276" version="1.1" xmlns="http://www.w3.org/2000/svg" xmlns:xlink="http://www.w3.org/1999/xlink">
    <!-- Generator: Sketch 50.2 (55047) - http://www.bohemiancoding.com/sketch -->
    <title>constellation--Group</title>
    <desc>Created with Sketch.</desc>
    <defs></defs>
    <g id="Page-1" stroke="none" stroke-width="1" fill="none" fill-rule="evenodd" opacity="0.653013393">
        <g id="FIS_D_Brand-HeroGraphic">
            <g id="constellation--Group" transform="translate(-49.000000, -82.000000)">
                <g id="constellation-1" transform="translate(532.350322, 225.383129) rotate(-27.000000) translate(-532.350322, -225.383129) translate(334.850322, 73.883129)">
                    <g>
                        <path d="M99.1270907,298.610141 L4.47012216,293.990652 L4.51886656,292.991841 L98.8903178,297.597396 L168.55418,258.803928 L318.673736,216.535494 L371.001434,103.761942 L315.908725,5.40617398 L237.255115,93.2328957 L233.710557,158.810283 L157.504013,217.99208 L52.8683703,126.256914 L53.5276031,125.504975 L157.542577,216.695995 L232.736653,158.300477 L236.275554,92.8277482 L316.097331,3.69661983 L372.123678,103.719191 L319.387301,217.373504 L168.989414,259.706157 L99.1270907,298.610141 Z M232.916925,158.160478 L232.724333,158.528394 L232.736653,158.300477 L232.916925,158.160478 Z" id="Stroke-191" fill="#A1925C" fill-rule="nonzero"></path>
                        <path d="M389.780297,53.024491 L390.718248,53.3712595 L371.900564,104.269943 L237.749243,93.6097625 L320.856521,218.802467 L318.875899,217.454458 L195.939389,217.75097 L168.60896,260.463038 L156.871674,216.845196 L195.391222,216.75229 L233.079978,157.852201 L317.202199,215.105705 L235.779108,92.4500556 L371.225127,103.213117 L389.780297,53.024491 Z M158.175495,217.842054 L168.986498,258.017663 L194.750355,217.753838 L158.175495,217.842054 Z M233.36781,159.257734 L196.580256,216.749422 L317.411789,216.457986 L233.36781,159.257734 Z" id="Stroke-194" fill="#A1925C" fill-rule="nonzero"></path>
                        <path d="M157.436381,217.265717 L99.0087042,298.103906" id="Stroke-197" stroke="#A1925C"></path>
                        <path d="M322.993965,216.729501 C322.866466,219.211982 320.751482,221.121468 318.269002,220.993969 C315.786521,220.86647 313.878536,218.751486 314.006035,216.267504 C314.133534,213.786522 316.248518,211.878536 318.730998,212.006035 C321.213479,212.133534 323.121464,214.248519 322.993965,216.729501" id="Fill-179" fill="#A1925C"></path>
                        <path d="M237.993969,158.729501 C237.86647,161.211982 235.749986,163.121468 233.269004,162.993969 C230.786522,162.86647 228.878536,160.751486 229.006035,158.267504 C229.133534,155.786522 231.248519,153.878536 233.731,154.006035 C236.211982,154.133534 238.121468,156.248519 237.993969,158.729501" id="Fill-181" fill="#A1925C"></path>
                        <path d="M240.993969,92.7295005 C240.86647,95.2119822 238.749986,97.1214681 236.269004,96.993969 C233.786522,96.86647 231.878536,94.7514856 232.006035,92.267504 C232.133534,89.7865223 234.248519,87.8785364 236.731,88.0060354 C239.211982,88.1335345 241.121468,90.2485189 240.993969,92.7295005" id="Fill-181-Copy" fill="#A1925C"></path>
                        <path d="M375.993969,103.729501 C375.86647,106.211982 373.749986,108.121468 371.269004,107.993969 C368.786522,107.86647 366.878536,105.751486 367.006035,103.267504 C367.133534,100.786522 369.248519,98.8785364 371.731,99.0060354 C374.211982,99.1335345 376.121468,101.248519 375.993969,103.729501" id="Fill-181-Copy-2" fill="#A1925C"></path>
                        <path d="M319.993969,4.72950054 C319.86647,7.2119822 317.749986,9.12146809 315.269004,8.99396903 C312.786522,8.86646997 310.878536,6.7514856 311.006035,4.26750395 C311.133534,1.78652228 313.248519,-0.121463623 315.731,0.00603543506 C318.211982,0.133534493 320.121468,2.24851887 319.993969,4.72950054" id="Fill-181-Copy-3" fill="#A1925C"></path>
                        <path d="M394.993969,53.7295005 C394.86647,56.2119822 392.749986,58.1214681 390.269004,57.993969 C387.786522,57.86647 385.878536,55.7514856 386.006035,53.267504 C386.133534,50.7865223 388.248519,48.8785364 390.731,49.0060354 C393.211982,49.1335345 395.121468,51.2485189 394.993969,53.7295005" id="Fill-181-Copy-4" fill="#A1925C"></path>
                        <path d="M161.993965,217.729503 C161.866466,220.210486 159.751481,222.121473 157.269,221.993973 C154.788018,221.866474 152.878532,219.749989 153.006031,217.267506 C153.13353,214.786523 155.248514,212.878536 157.730996,213.006035 C160.213478,213.133535 162.121464,215.24852 161.993965,217.729503" id="Fill-183" fill="#A1925C"></path>
                        <path d="M54.9939646,123.729503 C54.8664656,126.210486 52.7514812,128.121473 50.2689995,127.993973 C47.7880179,127.866474 45.878532,125.749989 46.006031,123.267506 C46.1335301,120.786523 48.2485144,118.878536 50.7309961,119.006035 C53.2134778,119.133535 55.1214637,121.24852 54.9939646,123.729503" id="Fill-183-Copy" fill="#A1925C"></path>
                        <path d="M173.445548,259.843036 C173.318049,262.324017 171.203065,264.233503 168.720583,264.106004 C166.239602,263.978505 164.330116,261.863521 164.457615,259.381039 C164.585114,256.898558 166.700098,254.990572 169.18258,255.118071 C171.665062,255.24557 173.573048,257.360554 173.445548,259.843036" id="Fill-185" fill="#A1925C"></path>
                        <path d="M102.993965,298.731 C102.866466,301.211982 100.751482,303.121468 98.2690018,302.993969 C95.7865214,302.86647 93.8785364,300.751486 94.0060354,298.269004 C94.1335344,295.786522 96.2485177,293.878536 98.7309982,294.006035 C101.213479,294.133534 103.121464,296.248519 102.993965,298.731" id="Fill-187" fill="#A1925C"></path>
                        <path d="M9.14216884,294.093909 C9.01466978,296.575304 6.89968541,298.485108 4.41720375,298.357588 C1.93622208,298.230068 0.0267361862,296.114731 0.154235244,293.631835 C0.281734302,291.15044 2.39671868,289.242136 4.87920034,289.369657 C7.36168199,289.497177 9.2696679,291.612514 9.14216884,294.093909" id="Fill-189" fill="#A1925C"></path>
                    </g>
                </g>
                <g id="constellation-7" transform="translate(0.383907, 55.398542)">
                    <g transform="translate(1.000000, 0.000000)">
                        <polyline id="Stroke-23" stroke="#A1925C" points="4.21496634 314.382264 8.56064705 211.67899 143.75912 215.808373 54.9145747 96.0562499 143.75912 150.197974 202.667719 46.5036471 216.187132 87.7974827 54.9145747 96.0562499"></polyline>
                        <polyline id="Stroke-20" stroke="#A1925C" points="364.906466 4.29267547 270.266231 4.29267547 202.667719 46.5032342 54.9145747 96.0558369 8.56064705 211.678577 69.4001771 308.03086 143.75912 215.80796 143.75912 150.197561 216.187132 87.7970698 325.31152 174.055763"></polyline>
                        <path d="M216.279115,87.869747 L270.266955,4.29240018" id="Stroke-26" stroke="#A1925C"></path>
                        <path d="M4.21496634,212.049193 C4.21496634,209.565193 6.22946634,207.549193 8.71496634,207.549193 C11.1989663,207.549193 13.2149663,209.565193 13.2149663,212.049193 C13.2149663,214.534693 11.1989663,216.549193 8.71496634,216.549193 C6.22946634,216.549193 4.21496634,214.534693 4.21496634,212.049193" id="Fill-2" fill="#A1925C"></path>
                        <path d="M64,305.5 C64,303.016 66.0145,301 68.5,301 C70.984,301 73,303.016 73,305.5 C73,307.9855 70.984,310 68.5,310 C66.0145,310 64,307.9855 64,305.5" id="Fill-4" fill="#A1925C"></path>
                        <path d="M139,215.5 C139,213.016 141.0145,211 143.5,211 C145.984,211 148,213.016 148,215.5 C148,217.9855 145.984,220 143.5,220 C141.0145,220 139,217.9855 139,215.5" id="Fill-4-Copy" fill="#A1925C"></path>
                        <path d="M0,310.5 C0,308.016 2.0145,306 4.5,306 C6.984,306 9,308.016 9,310.5 C9,312.9855 6.984,315 4.5,315 C2.0145,315 0,312.9855 0,310.5" id="Fill-4-Copy-2" fill="#A1925C"></path>
                        <path d="M55.068894,91.926591 C57.552894,91.926591 59.568894,93.942591 59.568894,96.426591 C59.568894,98.912091 57.552894,100.926591 55.068894,100.926591 C52.583394,100.926591 50.568894,98.912091 50.568894,96.426591 C50.568894,93.942591 52.583394,91.926591 55.068894,91.926591 Z" id="Fill-6" fill="#A1925C"></path>
                        <path d="M139.413439,150.568178 C139.413439,148.082678 141.427939,146.068178 143.913439,146.068178 C146.397439,146.068178 148.413439,148.082678 148.413439,150.568178 C148.413439,153.052178 146.397439,155.068178 143.913439,155.068178 C141.427939,155.068178 139.413439,153.052178 139.413439,150.568178" id="Fill-8" fill="#A1925C"></path>
                        <path d="M216.341451,83.6678239 C218.825451,83.6678239 220.841451,85.6838239 220.841451,88.1678239 C220.841451,90.6533239 218.825451,92.6678239 216.341451,92.6678239 C213.855951,92.6678239 211.841451,90.6533239 211.841451,88.1678239 C211.841451,85.6838239 213.855951,83.6678239 216.341451,83.6678239 Z" id="Fill-10" fill="#A1925C"></path>
                        <path d="M198.322038,46.8739883 C198.322038,44.3899883 200.336538,42.3739883 202.822038,42.3739883 C205.306038,42.3739883 207.322038,44.3899883 207.322038,46.8739883 C207.322038,49.3594883 205.306038,51.3739883 202.822038,51.3739883 C200.336538,51.3739883 198.322038,49.3594883 198.322038,46.8739883" id="Fill-12" fill="#A1925C"></path>
                        <path d="M265.920695,4.66329191 C265.920695,2.17779191 267.936695,0.163291909 270.420695,0.163291909 C272.906195,0.163291909 274.920695,2.17779191 274.920695,4.66329191 C274.920695,7.14729191 272.906195,9.16329191 270.420695,9.16329191 C267.936695,9.16329191 265.920695,7.14729191 265.920695,4.66329191" id="Fill-14" fill="#A1925C"></path>
                        <path d="M360.560785,4.66329191 C360.560785,2.17779191 362.575285,0.163291909 365.060785,0.163291909 C367.544785,0.163291909 369.560785,2.17779191 369.560785,4.66329191 C369.560785,7.14729191 367.544785,9.16329191 365.060785,9.16329191 C362.575285,9.16329191 360.560785,7.14729191 360.560785,4.66329191" id="Fill-16" fill="#A1925C"></path>
                        <path d="M320.965984,174.426379 C320.965984,171.940879 322.981984,169.926379 325.465984,169.926379 C327.951484,169.926379 329.965984,171.940879 329.965984,174.426379 C329.965984,176.911879 327.951484,178.926379 325.465984,178.926379 C322.981984,178.926379 320.965984,176.911879 320.965984,174.426379" id="Fill-18" fill="#A1925C"></path>
                    </g>
                </g>
                <g id="constellation-4" transform="translate(913.049871, 255.587893)">
                    <g>
                        <polyline id="Stroke-121" stroke="#A1925C" points="78.7955095 126.360555 87.2239733 74.6029833 192.670467 133.106713 78.5311634 126.574028 38.0453533 92.1446046 4.72846777 4.05108869 87.1504088 74.7048981"></polyline>
                        <polyline id="Stroke-123" stroke="#A1925C" points="192.670178 133.106575 83.2778055 40.9511168 4.72817806 3.44462084"></polyline>
                        <path d="M194.383637,129.414757 C196.640703,130.453982 197.626013,133.127775 196.585213,135.383178 C195.544414,137.640081 192.871928,138.62682 190.616363,137.584596 C188.359297,136.545371 187.373987,133.873077 188.414787,131.616174 C189.454086,129.359271 192.128072,128.374032 194.383637,129.414757" id="Fill-64" fill="#A1925C"></path>
                        <path d="M88.3836373,71.4147567 C90.6407027,72.4539818 91.626013,75.1277746 90.5852134,77.383178 C89.5444138,79.640081 86.8719284,80.62682 84.6163627,79.5845957 C82.3592973,78.5453705 81.373987,75.8730774 82.4147866,73.6161744 C83.4540865,71.3592714 86.1280716,70.374032 88.3836373,71.4147567" id="Fill-64-Copy" fill="#A1925C"></path>
                        <path d="M84.3836373,36.4147567 C86.6407027,37.4539818 87.626013,40.1277746 86.5852134,42.383178 C85.5444138,44.640081 82.8719284,45.62682 80.6163627,44.5845957 C78.3592973,43.5453705 77.373987,40.8730774 78.4147866,38.6161744 C79.4540865,36.3592714 82.1280716,35.374032 84.3836373,36.4147567" id="Fill-64-Copy-2" fill="#A1925C"></path>
                        <path d="M80.3836373,122.414757 C82.6407027,123.453982 83.626013,126.127775 82.5852134,128.383178 C81.5444138,130.640081 78.8719284,131.62682 76.6163627,130.584596 C74.3592973,129.545371 73.373987,126.873077 74.4147866,124.616174 C75.4540865,122.359271 78.1280716,121.374032 80.3836373,122.414757" id="Fill-64-Copy-3" fill="#A1925C"></path>
                        <path d="M40.3836373,88.4147567 C42.6407027,89.4539818 43.626013,92.1277746 42.5852134,94.383178 C41.5444138,96.640081 38.8719284,97.62682 36.6163627,96.5845957 C34.3592973,95.5453705 33.373987,92.8730774 34.4147866,90.6161744 C35.4540865,88.3592714 38.1280716,87.374032 40.3836373,88.4147567" id="Fill-64-Copy-4" fill="#A1925C"></path>
                        <path d="M6.38363731,0.414756741 C8.64070273,1.45398184 9.62601301,4.12777457 8.58521341,6.38317797 C7.54441381,8.64008097 4.87192839,9.62681996 2.61636269,8.58459565 C0.359297272,7.54537055 -0.626013011,4.87307742 0.414786588,2.61617442 C1.45408648,0.359271418 4.12807161,-0.625967966 6.38363731,0.414756741" id="Fill-64-Copy-5" fill="#A1925C"></path>
                    </g>
                </g>
                <g id="constellation-2" transform="translate(1327.374003, 148.753271) rotate(19.000000) translate(-1327.374003, -148.753271) translate(1203.374003, 72.753271)" fill="#A1925C">
                    <g>
                        <polygon id="Stroke-115" fill-rule="nonzero" points="26.3129843 17.0793192 110.184502 80.0234478 76.6177728 142.940986 4.39326064 147.087841 4.33593887 146.089485 75.9998123 141.97482 108.898821 80.3088568 22.8078689 15.6990802 159.184888 30.2719159 121.744265 107.11133 225.726622 66.1339911 176.272284 5.69414273 177.046219 5.06087769 227.36871 66.5617258 119.719314 108.98417 157.661766 31.1148528"></polygon>
                        <path d="M224.88217,66.0411145 L158.518235,31.3079895 L110.901134,79.5023292 L224.88217,66.0411145 Z M158.326681,30.0790545 L228.211424,66.6548777 L110.249549,80.5862314 L121.337,108.211997 L76.6155596,142.853325 L76.0031844,142.062757 L120.127738,107.883779 L108.834933,79.7463485 L109.309662,79.6902828 L158.326681,30.0790545 Z" id="Stroke-117" fill-rule="nonzero"></path>
                        <polygon id="Stroke-119" fill-rule="nonzero" points="243.303147 16.2263247 244.248508 16.55235 227.019333 66.5110088 226.073972 66.1849834"></polygon>
                        <path d="M6.4014299,142.872354 C8.65849532,143.913114 9.6438056,146.586998 8.603006,148.842477 C7.5622064,151.097957 4.88972097,152.08473 2.63415527,151.04397 C0.37708986,150.00321 -0.608220423,147.330826 0.432579176,145.075346 C1.47187906,142.818367 4.1458642,141.833094 6.4014299,142.872354" id="Fill-86"></path>
                        <path d="M78.3464516,138.743032 C80.6032869,139.782257 81.5884968,142.45605 80.5478033,144.711453 C79.5071098,146.968356 76.8348968,147.955095 74.5780615,146.912871 C72.3212262,145.873646 71.3360164,143.201353 72.3782095,140.94445 C73.4174034,138.687547 76.0896163,137.702307 78.3464516,138.743032" id="Fill-88"></path>
                        <path d="M111.5799,76.4500101 C113.836735,77.4908375 114.821945,80.1633941 113.781252,82.4190199 C112.740558,84.6761455 110.068345,85.6629818 107.81151,84.6206547 C105.554675,83.5813271 104.569465,80.9087705 105.611658,78.6516449 C106.650852,76.3960191 109.323065,75.4106825 111.5799,76.4500101" id="Fill-90"></path>
                        <path d="M160.383224,27.4139101 C162.640143,28.4547374 163.62539,31.1272941 162.586157,33.3829199 C161.543926,35.6400455 158.871613,36.6268818 156.616193,35.5845547 C154.359274,34.5452271 153.374028,31.8726704 154.41476,29.6155449 C155.455492,27.359919 158.127804,26.3745825 160.383224,27.4139101" id="Fill-92"></path>
                        <path d="M27.3832241,12.4139101 C29.6401435,13.4547374 30.62539,16.1272941 29.5861573,18.3829199 C28.5439255,20.6400455 25.8716131,21.6268818 23.6161933,20.5845547 C21.359274,19.5452271 20.3740275,16.8726704 21.4147597,14.6155449 C22.455492,12.359919 25.1278044,11.3745825 27.3832241,12.4139101" id="Fill-92-Copy"></path>
                        <path d="M177.383224,0.413910076 C179.640143,1.45473742 180.62539,4.12729408 179.586157,6.3829199 C178.543926,8.64004548 175.871613,9.62688178 173.616193,8.58455468 C171.359274,7.54522709 170.374028,4.87267043 171.41476,2.61554486 C172.455492,0.359919032 175.127804,-0.625417514 177.383224,0.413910076" id="Fill-92-Copy-2"></path>
                        <path d="M245.383224,13.4139101 C247.640143,14.4547374 248.62539,17.1272941 247.586157,19.3829199 C246.543926,21.6400455 243.871613,22.6268818 241.616193,21.5845547 C239.359274,20.5452271 238.374028,17.8726704 239.41476,15.6155449 C240.455492,13.359919 243.127804,12.3745825 245.383224,13.4139101" id="Fill-92-Copy-3"></path>
                        <path d="M122.768206,104.331441 C125.025126,105.372201 126.010372,108.046084 124.97114,110.301564 C123.928908,112.557044 121.256595,113.543817 119.001176,112.503057 C116.744256,111.462297 115.75901,108.789913 116.799742,106.534433 C117.840474,104.277453 120.512787,103.292181 122.768206,104.331441" id="Fill-94"></path>
                        <path d="M227.384703,61.4147678 C229.640115,62.4540206 230.625358,65.1278847 229.586129,67.3833482 C228.543901,69.6388118 225.871597,70.6270768 223.616185,69.5848246 C221.359273,68.5455718 220.37403,65.8732074 221.414758,63.6162442 C222.455487,61.359281 225.127791,60.3740153 227.384703,61.4147678" id="Fill-96"></path>
                    </g>
                </g>
                <g id="constellation-8" transform="translate(1614.011133, 89.835548)">
                    <g transform="translate(0.000000, 1.000000)">
                        <polyline id="Stroke-142" stroke="#A1925C" points="5.79818637 249.34434 24.4281196 198.781414 159.238378 209.358142 76.8355805 85.5179292 162.706231 143.830331 227.020857 43.0775015 238.341356 84.9659683 76.8355805 85.5179292"></polyline>
                        <polyline id="Stroke-139" stroke="#A1925C" points="391.28643 8.66404475 296.766425 4.14787559 227.021147 43.0783273 76.8344216 85.5173786 24.4284093 198.780864 80.0980278 297.916351 159.238668 209.358968 162.706521 143.82978 238.341645 84.9667942 342.768353 176.3239"></polyline>
                        <path d="M154.898255,209.503695 C155.02276,207.02106 157.136343,205.109957 159.618942,205.234463 C162.10154,205.35897 164.012616,207.472585 163.886611,209.955219 C163.762106,212.437854 161.648522,214.347458 159.167424,214.222951 C156.684826,214.098444 154.77375,211.984829 154.898255,209.503695" id="Fill-125" fill="#A1925C"></path>
                        <path d="M20.0057532,198.275055 C20.1302392,195.792456 22.2435026,193.87988 24.7257247,194.005885 C27.2079468,194.13039 29.1187329,196.243974 28.9942468,198.726573 C28.8682609,201.209171 26.7549975,203.118747 24.2742753,202.994242 C21.7920532,202.869737 19.8812671,200.756153 20.0057532,198.275055" id="Fill-127" fill="#A1925C"></path>
                        <path d="M0.00575315602,248.275055 C0.130239219,245.792456 2.24350263,243.87988 4.72572473,244.005885 C7.20794683,244.13039 9.11873291,246.243974 8.99424684,248.726573 C8.86826095,251.209171 6.75499754,253.118747 4.27427527,252.994242 C1.79205317,252.869737 -0.118732907,250.756153 0.00575315602,248.275055" id="Fill-127-Copy-2" fill="#A1925C"></path>
                        <path d="M75.0057532,296.275055 C75.1302392,293.792456 77.2435026,291.87988 79.7257247,292.005885 C82.2079468,292.13039 84.1187329,294.243974 83.9942468,296.726573 C83.8682609,299.209171 81.7549975,301.118747 79.2742753,300.994242 C76.7920532,300.869737 74.8812671,298.756153 75.0057532,296.275055" id="Fill-127-Copy-3" fill="#A1925C"></path>
                        <path d="M72.0057532,85.2750546 C72.1302392,82.7924562 74.2435026,80.8798804 76.7257247,81.0058854 C79.2079468,81.1303903 81.1187329,83.2439741 80.9942468,85.7265725 C80.8682609,88.209171 78.7549975,90.1187467 76.2742753,89.9942418 C73.7920532,89.8697368 71.8812671,87.756153 72.0057532,85.2750546" id="Fill-127-Copy" fill="#A1925C"></path>
                        <path d="M234.001086,85.1099694 C234.125573,82.628871 236.238836,80.7162952 238.721058,80.8423002 C241.20328,80.9668051 243.114066,83.0803889 242.98958,85.5629873 C242.863594,88.0455858 240.750331,89.9551615 238.269609,89.8306565 C235.787386,89.7061516 233.8766,87.5925678 234.001086,85.1099694" id="Fill-129" fill="#A1925C"></path>
                        <path d="M222.681458,43.2227583 C222.805963,40.7420349 224.919547,38.8297482 227.402145,38.9542343 C229.883244,39.0802202 231.79582,41.1919848 231.669815,43.6757078 C231.54531,46.1564313 229.431726,48.0672182 226.949128,47.9427321 C224.466529,47.8167461 222.556953,45.7049816 222.681458,43.2227583" id="Fill-131" fill="#A1925C"></path>
                        <path d="M292.426592,4.29119046 C292.551097,1.81009095 294.66468,-0.102485762 297.147279,0.0235192921 C299.629877,0.148024286 301.540953,2.26010899 301.414948,4.74420862 C301.290443,7.22530813 299.176859,9.13638478 296.695761,9.01187979 C294.213163,8.88737479 292.302087,6.77379002 292.426592,4.29119046" id="Fill-133" fill="#A1925C"></path>
                        <path d="M386.946596,8.80932221 C387.071101,6.32668755 389.184684,4.41558388 391.667281,4.54009064 C394.149878,4.66459739 396.060953,6.77821204 395.934948,9.2608467 C395.810443,11.7434814 393.69686,13.6530849 391.214263,13.5285782 C388.731666,13.4040714 386.822091,11.2904568 386.946596,8.80932221" id="Fill-135" fill="#A1925C"></path>
                        <path d="M338.429099,176.468626 C338.553604,173.985992 340.667187,172.074888 343.149786,172.199395 C345.632384,172.323902 347.54346,174.437516 347.417455,176.920151 C347.29295,179.402786 345.179366,181.312389 342.698268,181.187882 C340.215669,181.063376 338.304594,178.949761 338.429099,176.468626" id="Fill-137" fill="#A1925C"></path>
                    </g>
                </g>
            </g>
        </g>
    </g>
</svg>